<mxfile host="app.diagrams.net" modified="2023-10-04T18:28:55.899Z" agent="Mozilla/5.0 (Windows NT 10.0; Win64; x64) AppleWebKit/537.36 (KHTML, like Gecko) Chrome/117.0.0.0 Safari/537.36" etag="JGCEsMBXcaiNT6PODY5x" version="21.8.2" type="github">
  <diagram name="Page-1" id="2YBvvXClWsGukQMizWep">
    <mxGraphModel dx="1434" dy="750" grid="1" gridSize="10" guides="1" tooltips="1" connect="1" arrows="1" fold="1" page="1" pageScale="1" pageWidth="850" pageHeight="1100" math="0" shadow="0">
      <root>
        <mxCell id="0" />
        <mxCell id="1" parent="0" />
        <mxCell id="aM9ryv3xv72pqoxQDRHE-1" value="Homeowner" style="shape=umlLifeline;perimeter=lifelinePerimeter;whiteSpace=wrap;html=1;container=0;dropTarget=0;collapsible=0;recursiveResize=0;outlineConnect=0;portConstraint=eastwest;newEdgeStyle={&quot;edgeStyle&quot;:&quot;elbowEdgeStyle&quot;,&quot;elbow&quot;:&quot;vertical&quot;,&quot;curved&quot;:0,&quot;rounded&quot;:0};" parent="1" vertex="1">
          <mxGeometry x="40" y="40" width="100" height="640" as="geometry" />
        </mxCell>
        <mxCell id="aM9ryv3xv72pqoxQDRHE-5" value="UI" style="shape=umlLifeline;perimeter=lifelinePerimeter;whiteSpace=wrap;html=1;container=0;dropTarget=0;collapsible=0;recursiveResize=0;outlineConnect=0;portConstraint=eastwest;newEdgeStyle={&quot;edgeStyle&quot;:&quot;elbowEdgeStyle&quot;,&quot;elbow&quot;:&quot;vertical&quot;,&quot;curved&quot;:0,&quot;rounded&quot;:0};" parent="1" vertex="1">
          <mxGeometry x="220" y="40" width="100" height="640" as="geometry" />
        </mxCell>
        <mxCell id="aM9ryv3xv72pqoxQDRHE-7" value="OpenDashboard()" style="html=1;verticalAlign=bottom;endArrow=block;edgeStyle=elbowEdgeStyle;elbow=vertical;curved=0;rounded=0;" parent="1" source="aM9ryv3xv72pqoxQDRHE-1" edge="1">
          <mxGeometry relative="1" as="geometry">
            <mxPoint x="95" y="120" as="sourcePoint" />
            <Array as="points">
              <mxPoint x="180" y="120" />
            </Array>
            <mxPoint x="270" y="120" as="targetPoint" />
          </mxGeometry>
        </mxCell>
        <mxCell id="aM9ryv3xv72pqoxQDRHE-9" value="Loaded Dashboard" style="html=1;verticalAlign=bottom;endArrow=block;edgeStyle=elbowEdgeStyle;elbow=vertical;curved=0;rounded=0;dashed=1;" parent="1" edge="1">
          <mxGeometry relative="1" as="geometry">
            <mxPoint x="269.5" y="215" as="sourcePoint" />
            <Array as="points">
              <mxPoint x="190" y="215" />
            </Array>
            <mxPoint x="89.5" y="215" as="targetPoint" />
          </mxGeometry>
        </mxCell>
        <mxCell id="8fsABqZ9mkiLqo2HBE2c-2" value="Saved_Devices" style="shape=umlLifeline;perimeter=lifelinePerimeter;whiteSpace=wrap;html=1;container=0;dropTarget=0;collapsible=0;recursiveResize=0;outlineConnect=0;portConstraint=eastwest;newEdgeStyle={&quot;edgeStyle&quot;:&quot;elbowEdgeStyle&quot;,&quot;elbow&quot;:&quot;vertical&quot;,&quot;curved&quot;:0,&quot;rounded&quot;:0};" parent="1" vertex="1">
          <mxGeometry x="400" y="40" width="100" height="640" as="geometry" />
        </mxCell>
        <mxCell id="8fsABqZ9mkiLqo2HBE2c-4" value="Analytics" style="shape=umlLifeline;perimeter=lifelinePerimeter;whiteSpace=wrap;html=1;container=0;dropTarget=0;collapsible=0;recursiveResize=0;outlineConnect=0;portConstraint=eastwest;newEdgeStyle={&quot;edgeStyle&quot;:&quot;elbowEdgeStyle&quot;,&quot;elbow&quot;:&quot;vertical&quot;,&quot;curved&quot;:0,&quot;rounded&quot;:0};" parent="1" vertex="1">
          <mxGeometry x="580" y="40" width="100" height="640" as="geometry" />
        </mxCell>
        <mxCell id="8fsABqZ9mkiLqo2HBE2c-6" value="LoadAllDeviceInfo(user)" style="html=1;verticalAlign=bottom;endArrow=block;edgeStyle=elbowEdgeStyle;elbow=vertical;curved=0;rounded=0;" parent="1" edge="1">
          <mxGeometry relative="1" as="geometry">
            <mxPoint x="270" y="140" as="sourcePoint" />
            <Array as="points">
              <mxPoint x="361" y="140" />
            </Array>
            <mxPoint x="450" y="140" as="targetPoint" />
          </mxGeometry>
        </mxCell>
        <mxCell id="8fsABqZ9mkiLqo2HBE2c-8" value="Loaded Devices" style="html=1;verticalAlign=bottom;endArrow=block;edgeStyle=elbowEdgeStyle;elbow=vertical;curved=0;rounded=0;dashed=1;" parent="1" edge="1">
          <mxGeometry relative="1" as="geometry">
            <mxPoint x="450" y="160" as="sourcePoint" />
            <Array as="points">
              <mxPoint x="370.5" y="160" />
            </Array>
            <mxPoint x="270" y="160" as="targetPoint" />
          </mxGeometry>
        </mxCell>
        <mxCell id="8fsABqZ9mkiLqo2HBE2c-9" value="LoadAnalytics(devices)" style="html=1;verticalAlign=bottom;endArrow=block;edgeStyle=elbowEdgeStyle;elbow=vertical;curved=0;rounded=0;" parent="1" target="8fsABqZ9mkiLqo2HBE2c-4" edge="1">
          <mxGeometry relative="1" as="geometry">
            <mxPoint x="272" y="181" as="sourcePoint" />
            <Array as="points">
              <mxPoint x="363" y="181" />
            </Array>
            <mxPoint x="452" y="181" as="targetPoint" />
          </mxGeometry>
        </mxCell>
        <mxCell id="8fsABqZ9mkiLqo2HBE2c-10" value="Loaded Analytics" style="html=1;verticalAlign=bottom;endArrow=block;edgeStyle=elbowEdgeStyle;elbow=vertical;curved=0;rounded=0;dashed=1;" parent="1" source="8fsABqZ9mkiLqo2HBE2c-4" edge="1">
          <mxGeometry relative="1" as="geometry">
            <mxPoint x="451" y="201" as="sourcePoint" />
            <Array as="points">
              <mxPoint x="371.5" y="201" />
            </Array>
            <mxPoint x="271" y="201" as="targetPoint" />
          </mxGeometry>
        </mxCell>
        <mxCell id="8fsABqZ9mkiLqo2HBE2c-11" value="alternative" style="shape=umlFrame;whiteSpace=wrap;html=1;pointerEvents=0;width=70;height=30;" parent="1" vertex="1">
          <mxGeometry x="70" y="230" width="580" height="170" as="geometry" />
        </mxCell>
        <mxCell id="8fsABqZ9mkiLqo2HBE2c-12" value="[homeowner opens device graph with warning message]" style="text;html=1;strokeColor=none;fillColor=none;align=center;verticalAlign=middle;whiteSpace=wrap;rounded=0;" parent="1" vertex="1">
          <mxGeometry x="143" y="230" width="310" height="30" as="geometry" />
        </mxCell>
        <mxCell id="8fsABqZ9mkiLqo2HBE2c-14" value="OpenDeviceGraph()" style="html=1;verticalAlign=bottom;endArrow=block;edgeStyle=elbowEdgeStyle;elbow=vertical;curved=0;rounded=0;" parent="1" edge="1">
          <mxGeometry relative="1" as="geometry">
            <mxPoint x="90" y="279.5" as="sourcePoint" />
            <Array as="points">
              <mxPoint x="180" y="279.5" />
            </Array>
            <mxPoint x="270" y="279.5" as="targetPoint" />
          </mxGeometry>
        </mxCell>
        <mxCell id="8fsABqZ9mkiLqo2HBE2c-15" value="LoadDeviceInfo(device)" style="html=1;verticalAlign=bottom;endArrow=block;edgeStyle=elbowEdgeStyle;elbow=vertical;curved=0;rounded=0;" parent="1" edge="1">
          <mxGeometry relative="1" as="geometry">
            <mxPoint x="270" y="299.5" as="sourcePoint" />
            <Array as="points">
              <mxPoint x="361" y="299.5" />
            </Array>
            <mxPoint x="450" y="299.5" as="targetPoint" />
          </mxGeometry>
        </mxCell>
        <mxCell id="8fsABqZ9mkiLqo2HBE2c-16" value="Loaded Device" style="html=1;verticalAlign=bottom;endArrow=block;edgeStyle=elbowEdgeStyle;elbow=vertical;curved=0;rounded=0;dashed=1;" parent="1" edge="1">
          <mxGeometry relative="1" as="geometry">
            <mxPoint x="450" y="320" as="sourcePoint" />
            <Array as="points">
              <mxPoint x="370.5" y="320" />
            </Array>
            <mxPoint x="270" y="320" as="targetPoint" />
          </mxGeometry>
        </mxCell>
        <mxCell id="8fsABqZ9mkiLqo2HBE2c-17" value="LoadAnalytics(device)" style="html=1;verticalAlign=bottom;endArrow=block;edgeStyle=elbowEdgeStyle;elbow=vertical;curved=0;rounded=0;" parent="1" edge="1">
          <mxGeometry relative="1" as="geometry">
            <mxPoint x="272" y="341" as="sourcePoint" />
            <Array as="points">
              <mxPoint x="363" y="341" />
            </Array>
            <mxPoint x="630" y="341" as="targetPoint" />
          </mxGeometry>
        </mxCell>
        <mxCell id="8fsABqZ9mkiLqo2HBE2c-18" value="Loaded Analytics" style="html=1;verticalAlign=bottom;endArrow=block;edgeStyle=elbowEdgeStyle;elbow=vertical;curved=0;rounded=0;dashed=1;" parent="1" edge="1">
          <mxGeometry relative="1" as="geometry">
            <mxPoint x="630" y="361" as="sourcePoint" />
            <Array as="points">
              <mxPoint x="371.5" y="361" />
            </Array>
            <mxPoint x="271" y="361" as="targetPoint" />
          </mxGeometry>
        </mxCell>
        <mxCell id="8fsABqZ9mkiLqo2HBE2c-19" value="Loaded Device Graph" style="html=1;verticalAlign=bottom;endArrow=block;edgeStyle=elbowEdgeStyle;elbow=vertical;curved=0;rounded=0;" parent="1" edge="1">
          <mxGeometry relative="1" as="geometry">
            <mxPoint x="270" y="380" as="sourcePoint" />
            <Array as="points">
              <mxPoint x="190.5" y="380" />
            </Array>
            <mxPoint x="90" y="380" as="targetPoint" />
          </mxGeometry>
        </mxCell>
        <mxCell id="8fsABqZ9mkiLqo2HBE2c-20" value="OpenWarningMessage()" style="html=1;verticalAlign=bottom;endArrow=block;edgeStyle=elbowEdgeStyle;elbow=vertical;curved=0;rounded=0;" parent="1" edge="1">
          <mxGeometry relative="1" as="geometry">
            <mxPoint x="90" y="430" as="sourcePoint" />
            <Array as="points">
              <mxPoint x="180" y="430" />
            </Array>
            <mxPoint x="270" y="430" as="targetPoint" />
          </mxGeometry>
        </mxCell>
        <mxCell id="8fsABqZ9mkiLqo2HBE2c-21" value="Display Warning Message" style="html=1;verticalAlign=bottom;endArrow=block;edgeStyle=elbowEdgeStyle;elbow=vertical;curved=0;rounded=0;dashed=1;" parent="1" edge="1">
          <mxGeometry relative="1" as="geometry">
            <mxPoint x="270" y="460" as="sourcePoint" />
            <Array as="points">
              <mxPoint x="190.5" y="460" />
            </Array>
            <mxPoint x="90" y="460" as="targetPoint" />
          </mxGeometry>
        </mxCell>
        <mxCell id="8fsABqZ9mkiLqo2HBE2c-22" value="OpenRecommendations()" style="html=1;verticalAlign=bottom;endArrow=block;edgeStyle=elbowEdgeStyle;elbow=vertical;curved=0;rounded=0;" parent="1" edge="1">
          <mxGeometry relative="1" as="geometry">
            <mxPoint x="90" y="490" as="sourcePoint" />
            <Array as="points">
              <mxPoint x="180" y="490" />
            </Array>
            <mxPoint x="270" y="490" as="targetPoint" />
          </mxGeometry>
        </mxCell>
        <mxCell id="8fsABqZ9mkiLqo2HBE2c-24" value="LoadRecommendations(device)" style="html=1;verticalAlign=bottom;endArrow=block;edgeStyle=elbowEdgeStyle;elbow=vertical;curved=0;rounded=0;" parent="1" edge="1">
          <mxGeometry relative="1" as="geometry">
            <mxPoint x="271.5" y="510" as="sourcePoint" />
            <Array as="points">
              <mxPoint x="362.5" y="510" />
            </Array>
            <mxPoint x="629.5" y="510" as="targetPoint" />
          </mxGeometry>
        </mxCell>
        <mxCell id="8fsABqZ9mkiLqo2HBE2c-25" value="Loaded Recommendations" style="html=1;verticalAlign=bottom;endArrow=block;edgeStyle=elbowEdgeStyle;elbow=vertical;curved=0;rounded=0;dashed=1;" parent="1" edge="1">
          <mxGeometry relative="1" as="geometry">
            <mxPoint x="629.5" y="530" as="sourcePoint" />
            <Array as="points">
              <mxPoint x="371" y="530" />
            </Array>
            <mxPoint x="270.5" y="530" as="targetPoint" />
          </mxGeometry>
        </mxCell>
        <mxCell id="aMWvDNj8nH-ndxZlrexJ-1" value="Display Recommendations" style="html=1;verticalAlign=bottom;endArrow=block;edgeStyle=elbowEdgeStyle;elbow=vertical;curved=0;rounded=0;dashed=1;" edge="1" parent="1">
          <mxGeometry relative="1" as="geometry">
            <mxPoint x="270" y="549" as="sourcePoint" />
            <Array as="points">
              <mxPoint x="190.5" y="549" />
            </Array>
            <mxPoint x="90" y="549" as="targetPoint" />
          </mxGeometry>
        </mxCell>
        <mxCell id="aMWvDNj8nH-ndxZlrexJ-2" value="optional" style="shape=umlFrame;whiteSpace=wrap;html=1;pointerEvents=0;width=70;height=30;" vertex="1" parent="1">
          <mxGeometry x="70" y="570" width="580" height="100" as="geometry" />
        </mxCell>
        <mxCell id="aMWvDNj8nH-ndxZlrexJ-3" value="MarkRecommendationsAsRead()" style="html=1;verticalAlign=bottom;endArrow=block;edgeStyle=elbowEdgeStyle;elbow=vertical;curved=0;rounded=0;endFill=1;" edge="1" parent="1">
          <mxGeometry relative="1" as="geometry">
            <mxPoint x="90" y="620" as="sourcePoint" />
            <Array as="points">
              <mxPoint x="180" y="620" />
            </Array>
            <mxPoint x="270" y="620" as="targetPoint" />
          </mxGeometry>
        </mxCell>
        <mxCell id="aMWvDNj8nH-ndxZlrexJ-4" value="MarkRecommendationsAsRead(device)" style="html=1;verticalAlign=bottom;endArrow=open;edgeStyle=elbowEdgeStyle;elbow=vertical;curved=0;rounded=0;endFill=0;" edge="1" parent="1">
          <mxGeometry relative="1" as="geometry">
            <mxPoint x="271" y="640" as="sourcePoint" />
            <Array as="points">
              <mxPoint x="362" y="640" />
            </Array>
            <mxPoint x="629" y="640" as="targetPoint" />
          </mxGeometry>
        </mxCell>
        <mxCell id="aMWvDNj8nH-ndxZlrexJ-5" value="Mark Warning Message As Read" style="html=1;verticalAlign=bottom;endArrow=block;edgeStyle=elbowEdgeStyle;elbow=vertical;curved=0;rounded=0;dashed=1;" edge="1" parent="1">
          <mxGeometry relative="1" as="geometry">
            <mxPoint x="270" y="660" as="sourcePoint" />
            <Array as="points">
              <mxPoint x="190.5" y="660" />
            </Array>
            <mxPoint x="90" y="660" as="targetPoint" />
          </mxGeometry>
        </mxCell>
      </root>
    </mxGraphModel>
  </diagram>
</mxfile>
